<svg width="45" height="45" viewBox="0 0 45 45" fill="none" xmlns="http://www.w3.org/2000/svg">
<path d="M5.30157 0.314063C2.64824 1.22136 0.710616 3.35001 0.169476 5.93231C0.0123711 6.64768 -0.0225411 11.0795 0.0123711 23.0313L0.0647395 39.1707L0.448774 40.1303C1.25176 42.0671 2.92754 43.7421 4.86517 44.5447L5.82526 44.9285L22.042 44.9809C39.7599 45.0332 39.4108 45.0507 41.1739 44.0212C42.3085 43.3582 43.4955 42.1892 44.0018 41.2295C45.0666 39.2754 45.0317 39.9907 44.9793 22.0542L44.927 5.67059L44.3684 4.50158C43.7748 3.22787 42.5355 1.77969 41.4881 1.11667C41.139 0.889846 40.3709 0.558335 39.7949 0.348959C38.7649 -4.04441e-07 38.3809 -4.04441e-07 22.4609 -4.04441e-07C7.46613 0.0174476 6.10455 0.0348955 5.30157 0.314063ZM29.5656 8.20055V9.50914H27.0344H24.5033L24.4509 8.39247C24.416 7.78179 24.4335 7.17112 24.4858 7.03153C24.5731 6.8396 25.0794 6.80471 27.0693 6.8396L29.5656 6.89195V8.20055ZM15.1643 10.905V12.1787L14.466 12.3008C13.6456 12.4404 12.9997 12.9115 12.5982 13.6618C12.3538 14.1503 12.3189 15.1623 12.3364 22.5428C12.3713 31.5808 12.3538 31.5459 13.3139 32.1741C13.5583 32.3311 14.0645 32.523 14.4137 32.5928L15.077 32.7324V34.0235V35.3321L14.2042 35.3147C12.5633 35.2798 10.9748 34.1457 10.102 32.4183L9.57832 31.354V22.5951C9.57832 12.6847 9.56086 12.8592 10.9224 11.3412C11.8302 10.3292 12.7728 9.78831 13.9249 9.61383C15.1294 9.4219 15.1643 9.47424 15.1643 10.905ZM32.5506 10.0849C33.4234 10.5211 34.4707 11.5854 34.9421 12.4753C35.3261 13.1558 35.3261 13.3477 35.3785 22.1415C35.4308 32.2438 35.4483 32.1217 34.1565 33.5873C33.2488 34.6168 31.9571 35.2798 30.7875 35.3147L29.9147 35.3321V34.0235V32.7149L30.5606 32.6103C31.3985 32.4881 32.0269 32.0519 32.3935 31.354C32.6728 30.848 32.7077 30.0803 32.76 22.8917C32.7775 17.5178 32.7426 14.7435 32.6029 14.255C32.3411 13.2779 31.4857 12.4578 30.5606 12.3008L29.8274 12.1787V10.905C29.8274 10.0675 29.8972 9.59638 30.0369 9.56148C30.4209 9.4219 31.8698 9.73596 32.5506 10.0849ZM25.6729 15.8428C27.0519 16.5232 28.5182 18.0063 29.2514 19.4894C29.7052 20.4141 29.7401 20.6584 29.7401 22.4206C29.7401 24.2178 29.7052 24.4097 29.1815 25.5264C26.4933 31.197 18.6031 31.2144 15.8451 25.5613C15.2865 24.4097 15.2516 24.2352 15.2516 22.5079C15.2516 20.8154 15.2865 20.5886 15.7927 19.5243C16.7004 17.6224 18.2016 16.2092 20.1044 15.5112C20.8201 15.2495 21.3787 15.1797 22.7751 15.2146C24.3462 15.267 24.6429 15.3368 25.6729 15.8428Z" fill="#5B5A5A"/>
<path d="M21.5706 17.9882C18.7252 18.6687 17.2764 21.3382 18.2365 24.1299C19.2315 27.0786 23.3686 28.0033 25.6379 25.8049C26.6329 24.8453 27.0344 23.9031 27.0344 22.5072C27.0344 19.5411 24.3461 17.3077 21.5706 17.9882Z" fill="#5B5A5A"/>
</svg>
