<svg width="35" height="35" viewBox="0 0 35 35" fill="none" xmlns="http://www.w3.org/2000/svg">
<path d="M24.5 0V7H31.5L24.5 0Z" fill="white"/>
<path d="M21 10.5V0H5.25C4.2 0 3.5 0.7 3.5 1.75V33.25C3.5 34.3 4.2 35 5.25 35H29.75C30.8 35 31.5 34.3 31.5 33.25V10.5H21ZM12.25 3.5C14.175 3.5 15.75 5.075 15.75 7C15.75 8.925 14.175 10.5 12.25 10.5C10.325 10.5 8.75 8.925 8.75 7C8.75 5.075 10.325 3.5 12.25 3.5ZM7 15.05C7 11.375 17.5 11.375 17.5 15.05V17.5H7V15.05ZM22.75 31.5H8.75C7.7 31.5 7 30.8 7 29.75C7 28.7 7.7 28 8.75 28H22.75C23.8 28 24.5 28.7 24.5 29.75C24.5 30.8 23.625 31.5 22.75 31.5ZM26.25 24.5H8.75C7.7 24.5 7 23.8 7 22.75C7 21.7 7.7 21 8.75 21H26.25C27.3 21 28 21.7 28 22.75C28 23.8 27.125 24.5 26.25 24.5Z" fill="white"/>
</svg>
