<svg width="35" height="35" viewBox="0 0 35 35" fill="none" xmlns="http://www.w3.org/2000/svg">
<path d="M32.8125 15.3125L26.25 19.6875C26.25 18.3597 25.6462 17.185 24.7122 16.3822C26.9358 15.0423 28.4375 12.6284 28.4375 9.84375C28.4375 5.61527 25.0097 2.1875 20.7812 2.1875C16.5528 2.1875 13.125 5.61533 13.125 9.84375C13.125 11.9886 14.012 13.9223 15.4339 15.3125H11.422C12.4698 14.1498 13.125 12.6263 13.125 10.9375C13.125 7.31283 10.1872 4.375 6.5625 4.375C2.93783 4.375 0 7.31283 0 10.9375C0 12.915 0.893587 14.6672 2.27717 15.8703C0.926413 16.6152 0 18.0359 0 19.6875V28.4375C0 30.8536 1.95891 32.8125 4.375 32.8125H21.875C24.2911 32.8125 26.25 30.8536 26.25 28.4375L32.8125 32.8125C34.0211 32.8125 35 31.8336 35 30.625V17.5C35 16.2914 34.0211 15.3125 32.8125 15.3125ZM6.5625 15.3125C4.14641 15.3125 2.1875 13.3536 2.1875 10.9375C2.1875 8.52141 4.14641 6.5625 6.5625 6.5625C8.97859 6.5625 10.9375 8.52141 10.9375 10.9375C10.9375 13.3536 8.97859 15.3125 6.5625 15.3125ZM20.7812 15.3245C17.7537 15.3245 15.3005 12.8701 15.3005 9.84375C15.3005 6.81625 17.7549 4.36299 20.7812 4.36299C23.8076 4.36299 26.262 6.81625 26.262 9.84375C26.262 12.8713 23.8087 15.3245 20.7812 15.3245Z" fill="white"/>
</svg>
