<svg width="24" height="35" viewBox="0 0 24 35" fill="none" xmlns="http://www.w3.org/2000/svg">
<path d="M12.0001 14C13.8937 14 15.4287 12.433 15.4287 10.5C15.4287 8.567 13.8937 7 12.0001 7C10.1066 7 8.57153 8.567 8.57153 10.5C8.57153 12.433 10.1066 14 12.0001 14Z" fill="white"/>
<path d="M12 0C5.31429 0 0 5.425 0 12.25C0 19.075 12 35 12 35C12 35 24 19.075 24 12.25C24 5.425 18.6857 0 12 0ZM17.6571 18.725C16.4571 16.975 14.4 15.75 12 15.75C9.6 15.75 7.54286 16.975 6.34286 18.725C4.62857 17.15 3.42857 14.875 3.42857 12.25C3.42857 7.35 7.37143 3.5 12 3.5C16.8 3.5 20.5714 7.35 20.5714 12.25C20.5714 14.875 19.3714 17.15 17.6571 18.725Z" fill="white"/>
</svg>
